<svg width="158" height="49" viewBox="0 0 158 49" fill="none" xmlns="http://www.w3.org/2000/svg">
<path fill-rule="evenodd" clip-rule="evenodd" d="M141.049 0H145.909V10.5302H141.049V0ZM156.148 9.81756C156.828 8.16997 157.178 6.40409 157.178 4.62075H152.467C152.467 5.78324 152.239 6.93435 151.795 8.00836C151.352 9.08236 150.702 10.0582 149.883 10.8802C149.064 11.7022 148.092 12.3543 147.022 12.7992C145.951 13.244 144.804 13.473 143.646 13.473C142.488 13.473 141.341 13.244 140.27 12.7992C139.2 12.3543 138.228 11.7022 137.409 10.8802C136.589 10.0582 135.94 9.08236 135.496 8.00836C135.053 6.93435 134.825 5.78324 134.825 4.62075H130.114C130.114 6.40409 130.464 8.16997 131.144 9.81756C131.824 11.4652 132.821 12.9622 134.077 14.2232C135.334 15.4842 136.826 16.4845 138.468 17.167C140.109 17.8494 141.869 18.2007 143.646 18.2007C145.423 18.2007 147.183 17.8494 148.824 17.167C150.466 16.4845 151.958 15.4842 153.214 14.2232C154.471 12.9622 155.468 11.4652 156.148 9.81756ZM156.24 28.3775C156.923 30.0192 157.274 31.7789 157.274 33.5559H152.546C152.546 32.3975 152.317 31.2505 151.872 30.1803C151.427 29.1101 150.775 28.1377 149.953 27.3186C149.131 26.4995 148.156 25.8497 147.082 25.4064C146.008 24.9631 144.856 24.735 143.694 24.735C142.531 24.735 141.38 24.9631 140.306 25.4064C139.232 25.8497 138.256 26.4995 137.434 27.3186C136.612 28.1377 135.96 29.1101 135.516 30.1803C135.071 31.2505 134.842 32.3975 134.842 33.5559H130.114C130.114 31.7789 130.465 30.0192 131.148 28.3775C131.83 26.7357 132.83 25.244 134.091 23.9874C135.352 22.7308 136.85 21.7341 138.497 21.054C140.145 20.374 141.911 20.024 143.694 20.024C145.477 20.024 147.243 20.374 148.891 21.054C150.538 21.7341 152.035 22.7308 153.296 23.9874C154.557 25.244 155.558 26.7357 156.24 28.3775ZM141.049 38.7799H145.909V28.2497H141.049V38.7799Z" fill="#B818B2"/>
<path d="M66.4683 41.1275C66.9391 41.1275 67.2832 41.2801 67.5005 41.5854C67.7178 41.8854 67.8264 42.3899 67.8264 43.0987C67.8264 43.5437 67.7773 43.9136 67.679 44.2085C67.5807 44.4983 67.4125 44.7156 67.1745 44.8604C66.9417 45.0053 66.6209 45.0777 66.2122 45.0777C65.9483 45.0777 65.6663 45.0545 65.3662 45.0079C65.0713 44.9665 64.7945 44.9018 64.5358 44.8139V39.552H65.0247V41.0576C65.0247 41.218 65.0222 41.3603 65.017 41.4845C65.0118 41.6086 64.9963 41.7354 64.9704 41.8647C65.2136 41.6267 65.4594 41.4457 65.7077 41.3215C65.956 41.1921 66.2096 41.1275 66.4683 41.1275ZM66.313 41.5621C66.1009 41.5621 65.8965 41.619 65.6999 41.7328C65.5033 41.8466 65.2757 42.0044 65.017 42.2062L65.0247 44.5034C65.2369 44.5604 65.4387 44.6017 65.6301 44.6276C65.8267 44.6483 66.0181 44.6561 66.2044 44.6509C66.6028 44.6509 66.8874 44.5371 67.0581 44.3094C67.2288 44.0766 67.3142 43.673 67.3142 43.0987C67.3142 42.721 67.2832 42.4209 67.2211 42.1985C67.1642 41.9708 67.0633 41.8078 66.9184 41.7095C66.7735 41.6112 66.5717 41.5621 66.313 41.5621ZM68.9558 41.2206L70.0656 44.162C70.0967 44.2344 70.1251 44.3068 70.151 44.3793C70.1769 44.4517 70.2001 44.5241 70.2208 44.5966H70.3295C70.3554 44.5241 70.3812 44.4491 70.4071 44.3715C70.4381 44.2939 70.4666 44.2215 70.4925 44.1542L71.5945 41.2206H72.1223L70.539 45.2485C70.4562 45.4658 70.3502 45.6702 70.2208 45.8616C70.0967 46.053 69.9389 46.2134 69.7474 46.3428C69.5612 46.4773 69.3283 46.5601 69.0489 46.5911L68.9869 46.2729C69.2973 46.1694 69.5327 46.0246 69.6931 45.8383C69.8535 45.6572 69.9854 45.4425 70.0889 45.1942L70.1743 44.9846H70.0423C69.9492 44.9846 69.8871 44.9406 69.8561 44.8527L68.4281 41.2206H68.9558Z" fill="#4E0D4F"/>
<path d="M86.6489 48.8238C86.2271 48.6991 85.8085 48.2645 86.1102 48.2645C86.2624 48.2645 86.2993 48.026 86.2532 47.3376C86.1713 46.1127 85.8631 42.4883 85.8385 42.4604C85.7987 42.4153 85.1605 42.7296 84.5847 43.078C84.2303 43.2924 84.0002 43.3906 83.8979 43.3711C83.6984 43.3329 83.7035 43.3594 83.9496 43.6397C84.0911 43.8009 84.1336 43.8953 84.086 43.9428C84.0385 43.9904 84.0713 44.0762 84.1914 44.2184C84.419 44.488 84.6089 44.9101 84.6107 45.1505C84.6116 45.2667 84.5181 45.4701 84.3728 45.668C84.0928 46.0495 83.9906 46.0678 83.3378 45.8536C82.7884 45.6734 82.5275 45.5375 82.5575 45.4473C82.5707 45.4079 82.7694 45.318 82.9992 45.2474C83.3766 45.1316 83.4127 45.105 83.3722 44.9724C83.1759 44.3299 81.8162 41.6291 81.5231 41.2997C81.285 41.032 81.119 40.9947 80.8875 41.1568C80.8058 41.214 80.7115 41.2439 80.678 41.2231C80.6444 41.2024 80.5239 41.2638 80.41 41.3596C80.2962 41.4554 80.1614 41.5178 80.1105 41.4982C79.9846 41.4499 79.3088 41.6313 78.9149 41.8192C78.7378 41.9036 78.5385 41.9584 78.4719 41.941C78.4054 41.9236 78.2347 41.9818 78.0927 42.0704C77.9507 42.159 77.6639 42.3014 77.4555 42.3869L77.0764 42.5423L76.8418 43.1498C76.6463 43.6559 76.6226 43.7691 76.6998 43.8288C76.7776 43.8888 76.7711 43.9354 76.6598 44.1185C76.5868 44.2385 76.5442 44.3904 76.5651 44.4562C76.6393 44.6901 76.0555 46.1622 75.8542 46.2489C75.8273 46.2605 75.8179 46.3055 75.8333 46.3491C75.8487 46.3926 75.9191 46.6921 75.9897 47.0146L76.1182 47.601L75.8491 47.7382C75.5369 47.8975 75.2409 47.8701 74.9699 47.657C74.8162 47.5361 74.7962 47.4727 74.7965 47.1078C74.7967 46.7443 75.1098 45.0145 75.2299 44.7128C75.266 44.6221 75.2247 44.5919 75.0188 44.5586C73.8016 44.3613 73.3271 44.0641 73.3271 43.4991C73.3271 43.2716 73.3514 43.2472 73.9029 42.9215C74.2196 42.7344 74.8581 42.3911 75.3219 42.1586L76.1651 41.7357L76.4632 40.7766C76.8984 39.3765 77.2779 38.3983 77.7809 37.3801C78.1343 36.6648 78.3053 36.3994 78.6093 36.0947C78.9666 35.7366 79.0134 35.7107 79.3048 35.7107C79.8809 35.7107 80.3698 36.0724 80.8169 36.8293C81.0949 37.2999 81.4406 38.0725 81.5041 38.3651C81.53 38.4844 81.5829 38.5821 81.6217 38.5821C81.667 38.5821 81.6773 38.6908 81.6506 38.8862C81.6172 39.1297 81.6338 39.2171 81.7338 39.3244C81.8025 39.3982 81.9094 39.6195 81.9713 39.8162C82.0622 40.1053 82.1263 40.194 82.3063 40.2794C82.4288 40.3375 82.6013 40.385 82.6897 40.385C82.7782 40.385 82.9089 40.4301 82.9801 40.4852C83.1085 40.5843 83.1085 40.5864 82.9801 40.6855C82.9089 40.7406 82.7962 40.7857 82.7297 40.7857C82.6591 40.7857 82.6091 40.8342 82.6093 40.9025C82.6099 41.0951 82.7446 41.5202 82.805 41.5202C82.8359 41.5202 82.8818 41.6329 82.9069 41.7706C82.9619 42.0714 83.1121 42.3215 83.2377 42.3215C83.288 42.3215 83.3473 42.3687 83.3694 42.4264C83.4025 42.5124 83.4607 42.4898 83.6938 42.3005C84.0581 42.0046 84.7644 41.6547 85.4629 41.4242C85.7655 41.3243 86.0262 41.2214 86.0422 41.1955C86.0583 41.1695 86.1223 40.8939 86.1845 40.583C86.2468 40.2721 86.3977 39.6722 86.5198 39.2498C87.2026 36.8897 88.1086 35.7279 89.3199 35.6594C89.6355 35.6415 89.7669 35.6658 89.9389 35.7737C90.2254 35.9535 90.342 36.1993 90.2145 36.3544C90.1172 36.4727 89.4433 36.7979 89.1511 36.8676C88.9142 36.924 88.6792 37.1908 88.2909 37.8438C87.8042 38.6625 87.1404 40.6651 87.3021 40.8268C87.3258 40.8505 87.8689 40.7752 88.509 40.6595C89.8013 40.426 90.9559 40.3206 90.9559 40.4363C90.9559 40.6882 90.6519 40.9192 90.3203 40.9192C90.1784 40.9192 90.1532 40.9433 90.1863 41.0474C90.2143 41.1357 90.1897 41.1868 90.1073 41.2117C90.0415 41.2315 89.3416 41.4169 88.552 41.6236C87.7624 41.8303 87.1065 42.0091 87.0946 42.0208C87.0826 42.0326 87.0756 42.7135 87.0788 43.5341C87.0845 44.9512 87.1301 45.6452 87.2746 46.5119C87.3098 46.723 87.3417 46.9407 87.3456 46.9958C87.4372 48.3151 87.4323 48.4266 87.2726 48.6601C87.1866 48.7858 87.0862 48.8962 87.0495 48.9056C87.0128 48.9149 86.8325 48.8781 86.6489 48.8238ZM75.623 43.6464C75.6462 43.5303 75.6528 43.423 75.6377 43.4079C75.5883 43.3585 75.1318 43.6882 75.1309 43.7739C75.1304 43.8243 75.2192 43.8574 75.3555 43.8574C75.555 43.8574 75.5857 43.8332 75.623 43.6464ZM78.3395 41.0141C78.6394 40.9193 78.952 40.8587 79.0341 40.8793C79.1161 40.8999 79.4762 40.8252 79.8341 40.7133C80.1921 40.6014 80.5647 40.515 80.6622 40.5213C81.1442 40.5524 81.1607 40.5422 81.113 40.2437C81.0888 40.0925 80.9688 39.7094 80.8463 39.3923C80.5721 38.6827 79.6246 36.7792 79.5455 36.7792C79.5138 36.7792 79.2422 37.0968 78.942 37.485C78.5316 38.0157 78.4066 38.2241 78.4385 38.3244C78.47 38.4236 78.4451 38.4673 78.3417 38.4943C78.2211 38.5258 78.2081 38.5651 78.2441 38.7897C78.2706 38.9555 78.2554 39.085 78.2021 39.1493C78.0738 39.3039 78.012 39.2703 77.988 39.0328C77.9678 38.8328 77.9566 38.847 77.8441 39.2144C77.7615 39.4843 77.7456 39.6209 77.795 39.6373C77.9668 39.6946 77.8113 40.285 77.6073 40.3494C77.5216 40.3765 77.5051 40.4622 77.5232 40.7848C77.5502 41.2636 77.55 41.2635 78.3395 41.0141ZM99.0836 46.4555C98.5253 46.324 98.0907 45.9811 97.7301 45.3875C97.5982 45.1703 97.4775 44.9925 97.4619 44.9925C97.4463 44.9925 97.2541 45.1246 97.0348 45.286C96.2431 45.8688 95.717 46.0031 95.1953 45.7556C94.5106 45.4307 94.2709 44.2011 94.526 42.3215C94.6452 41.4429 94.9838 39.82 95.2176 39.0069C95.2901 38.7549 95.369 38.4586 95.3929 38.3484C95.4168 38.2382 95.511 37.9001 95.6022 37.5972C95.7528 37.0969 95.7835 37.0463 95.9361 37.0463C96.4025 37.0463 96.8989 37.595 96.8989 38.1107C96.8989 38.5519 96.7444 39.0882 96.4019 39.8358C95.8251 41.0948 95.3683 44.1617 95.7364 44.303C96.01 44.4079 97.2068 43.4025 99.1996 41.3936C100.671 39.9107 100.949 39.7076 101.148 39.97C101.234 40.0836 101.244 40.107 101.269 40.2682C101.293 40.4192 101.064 40.9592 100.836 41.2907C100.713 41.4697 100.394 41.8446 100.127 42.1236C99.8604 42.4027 99.4158 42.9145 99.1389 43.2609C98.591 43.9466 98.5307 44.146 98.7282 44.6187C98.8682 44.9538 99.0658 45.0593 99.5536 45.0593C100.003 45.0593 100.673 44.8363 101.339 44.4648L101.673 44.2788L101.707 43.2768C101.745 42.1418 101.778 42.0544 102.178 42.0544C102.619 42.0544 102.791 42.3907 102.934 43.5329C102.994 44.0162 103.036 44.1844 103.074 44.0911C103.104 44.0176 103.26 43.6189 103.422 43.2051C103.757 42.3472 104.104 41.7185 104.416 41.4034C104.59 41.2281 104.685 41.1863 104.908 41.1863C105.433 41.1863 105.914 41.5801 105.914 42.0109C105.914 42.2857 105.634 42.5552 105.349 42.5552H105.106L104.347 44.258L103.588 45.9608L103.136 46.0229L102.685 46.085L102.424 45.7915C102.281 45.6302 102.119 45.3919 102.063 45.262L101.962 45.0259L101.851 45.1929C101.206 46.163 100.061 46.6855 99.0836 46.4555ZM115.296 46.3176C115.058 46.1877 114.454 45.5669 114.33 45.3264C114.264 45.1979 114.188 44.9575 114.161 44.7922C114.08 44.2967 114.061 44.2938 113.591 44.705C112.243 45.8833 111.383 46.2681 110.786 45.9596C110.678 45.9038 110.571 45.7818 110.547 45.6885C110.524 45.595 110.469 45.5326 110.425 45.5495C108.563 46.2637 106.875 46.2122 106.274 45.423C106.089 45.1804 106.081 45.1392 106.081 44.4633C106.081 43.8069 106.095 43.7313 106.279 43.3899C106.515 42.9537 107.466 41.9734 107.985 41.631C108.626 41.2083 109.412 41.2222 109.853 41.6641C110.026 41.8366 110.054 41.9138 110.054 42.221C110.054 42.6268 109.925 42.9655 109.518 43.6312C109.363 43.8841 109.203 44.2263 109.161 44.3916C109.087 44.6877 109.081 44.6923 108.785 44.7101C108.519 44.7261 108.455 44.7003 108.234 44.4889C108.096 44.3573 107.984 44.2109 107.984 44.1636C107.984 43.945 108.265 43.3594 108.738 42.5903L108.881 42.3582L108.663 42.5136C108.142 42.8847 107.527 43.5891 107.346 44.0222C107.201 44.37 107.219 44.8959 107.383 45.0593C107.545 45.2213 108.128 45.2393 108.752 45.1015C108.972 45.0528 109.471 44.9441 109.86 44.8599L110.568 44.7068L110.717 44.232C111.272 42.4727 112.654 41.3851 114.591 41.1835C115.202 41.1199 115.462 41.1503 115.801 41.3245C115.949 41.4006 115.86 42.1573 115.6 43.0336C115.311 44.0062 115.284 44.3399 115.46 44.8055C115.539 45.0149 115.733 45.3454 115.892 45.5401C116.196 45.9128 116.314 46.2944 116.146 46.3589C115.985 46.4208 115.435 46.3941 115.296 46.3176ZM113.159 43.6496C113.891 43.0338 114.528 42.3281 114.528 42.1335C114.528 42.0326 113.804 42.3453 113.276 42.6744C113.046 42.8174 112.707 43.1044 112.522 43.312C112.174 43.7019 111.819 44.3412 111.928 44.3804C111.962 44.3927 111.99 44.4489 111.99 44.5053C111.99 44.6144 112.161 44.4891 113.159 43.6496ZM89.0802 45.8838C88.804 45.5801 88.6484 45.3211 88.4844 44.8924C88.3545 44.5527 88.3271 44.3341 88.3048 43.4567C88.2737 42.2349 88.313 42.0996 88.7084 42.0668C88.8498 42.0551 89.009 42.0846 89.0683 42.1336C89.2655 42.2964 89.4118 42.7532 89.4974 43.4742C89.5442 43.8686 89.6002 44.1912 89.6217 44.1912C89.6432 44.1912 89.7273 43.9786 89.8085 43.7187C90.0193 43.0439 90.5706 41.906 90.8546 41.5593C91.2273 41.1045 91.5135 41.0546 92.0772 41.3461C92.4945 41.5619 92.6144 42.086 92.3175 42.396C92.1778 42.5417 92.1009 42.571 91.9305 42.5433C91.7463 42.5134 91.706 42.5343 91.6296 42.699C91.5811 42.8035 91.2415 43.5652 90.8748 44.3916C90.5082 45.2179 90.1886 45.915 90.1647 45.9406C90.1408 45.9662 89.9259 46.0067 89.6872 46.0306C89.2702 46.0722 89.2463 46.0664 89.0802 45.8838ZM93.2862 45.9101C92.766 45.5643 92.6027 44.8304 92.6355 42.9861C92.6631 41.4308 92.7 41.3199 93.1899 41.3199C93.4363 41.3199 93.5046 41.3498 93.6089 41.5035C93.8814 41.9049 93.9005 42.0287 93.8534 43.0851C93.8041 44.1905 93.8472 44.4364 94.2166 45.1595C94.4027 45.5236 94.407 45.6719 94.2383 45.9044C94.0841 46.1168 93.6015 46.1197 93.2862 45.9101V45.9101ZM93.1146 40.2193C93.0369 40.1648 92.8805 39.9801 92.767 39.8089C92.5487 39.4793 92.5446 39.3469 92.7404 38.9586C92.8339 38.7731 92.8491 38.7684 93.267 38.795C93.8088 38.8295 94.0244 39.0097 94.0765 39.4717C94.1279 39.9281 94.0587 40.1117 93.7936 40.2225C93.5007 40.3449 93.2925 40.3439 93.1146 40.2192V40.2193Z" fill="#B818B2"/>
<g clip-path="url(#clip0)">
<path fill-rule="evenodd" clip-rule="evenodd" d="M20.5732 3.91772L16.8061 4.05033L0.178711 33.4053L6.93358 33.2727L18.235 13.4817L29.5364 33.2727H36.2913L20.5732 3.91772ZM18.17 22.6462C16.6275 22.6462 15.3772 23.9247 15.3772 25.5019C15.3772 27.0791 16.6275 28.3576 18.17 28.3576C19.7126 28.3576 20.9629 27.0791 20.9629 25.5019C20.9635 23.9247 19.7126 22.6462 18.17 22.6462Z" fill="#252323"/>
<path fill-rule="evenodd" clip-rule="evenodd" d="M101.523 3.91772L97.7563 4.05033L81.1289 33.4053L87.8838 33.2727L99.1852 13.4817L110.487 33.2727H117.241L101.523 3.91772ZM99.1202 22.6462C97.5777 22.6462 96.3274 23.9247 96.3274 25.5019C96.3274 27.0791 97.5777 28.3576 99.1202 28.3576C100.663 28.3576 101.913 27.0791 101.913 25.5019C101.914 23.9247 100.663 22.6462 99.1202 22.6462Z" fill="#252323"/>
<path fill-rule="evenodd" clip-rule="evenodd" d="M55.9983 3.83008V22.1613L41.156 3.8723H36.5261V33.3707H42.238V13.4801L58.1617 33.4129V33.3707H61.7102V3.83008H55.9983Z" fill="#252323"/>
<path fill-rule="evenodd" clip-rule="evenodd" d="M83.6761 28.5625L73.4761 18.158L86.9339 4.0404V3.87207H79.837L68.3266 16.3458V3.87207H62.6147V33.3705H68.3266V20.3068L80.894 33.2558L83.6761 28.5625Z" fill="#252323"/>
</g>
<defs>
<clipPath id="clip0">
<rect width="117.452" height="29.7691" fill="white" transform="translate(0 3.70435)"/>
</clipPath>
</defs>
</svg>
